<svg xmlns="http://www.w3.org/2000/svg" width="28" height="27.243" viewBox="0 0 28 27.243">
  <g id="그룹_400" data-name="그룹 400" transform="translate(-1171.704 -443.273)">
    <path id="패스_26" data-name="패스 26" d="M1181.594,450.111a.324.324,0,0,0-.2-.6l-2.873-.241a.5.5,0,0,1-.361-.262l-1.118-2.659a.324.324,0,0,0-.634,0L1175.294,449a.5.5,0,0,1-.36.262l-2.874.241a.324.324,0,0,0-.2.6l2.183,1.885a.493.493,0,0,1,.138.424l-.659,2.808a.385.385,0,0,0,.052.342.34.34,0,0,0,.462.031l2.467-1.494a.515.515,0,0,1,.446,0l2.467,1.494a.465.465,0,0,0,.236.075.28.28,0,0,0,.226-.106.386.386,0,0,0,.052-.342l-.659-2.808a.5.5,0,0,1,.138-.424Z" transform="translate(0 -1.052)" fill="#ffa600"/>
    <g id="그룹_19" data-name="그룹 19" transform="translate(1171.704 443.273)">
      <g id="그룹_18" data-name="그룹 18">
        <path id="패스_27" data-name="패스 27" d="M1176.245,454.742a.757.757,0,0,1,.757.757v.583a13.571,13.571,0,0,1-2.864,8.378h23.134a13.569,13.569,0,0,1-2.864-8.378V453.8a8.908,8.908,0,0,0-8.54-9.014,8.537,8.537,0,0,0-5.754,2.03.749.749,0,0,1-1.014-.056h0a.765.765,0,0,1,.063-1.122,10.112,10.112,0,0,1,6.732-2.366A10.429,10.429,0,0,1,1195.92,453.8v3.319a10.9,10.9,0,0,0,3.565,7.564.757.757,0,0,1-.538,1.289h-26.486a.756.756,0,0,1-.538-1.288,10.907,10.907,0,0,0,3.565-7.567V455.5a.757.757,0,0,1,.756-.757Z" transform="translate(-1171.704 -443.273)" fill="#232323"/>
      </g>
      <path id="패스_28" data-name="패스 28" d="M1192.469,485.173a2.649,2.649,0,0,0,2.649-2.649h-5.3A2.649,2.649,0,0,0,1192.469,485.173Z" transform="translate(-1178.47 -457.931)" fill="#232323"/>
    </g>
  </g>
</svg>
