<svg xmlns="http://www.w3.org/2000/svg" viewBox="0 0 29 29"><defs><style>.cls-1{fill:none;}.cls-2{fill:#3d3d3d;}</style></defs><g id="레이어_2" data-name="레이어 2"><g id="레이어_1-2" data-name="레이어 1"><g id="그룹_560" data-name="그룹 560"><g id="그룹_418" data-name="그룹 418"><rect id="사각형_257" data-name="사각형 257" class="cls-1" width="29" height="29"/><g id="그룹_4" data-name="그룹 4"><path id="패스_4" data-name="패스 4" class="cls-2" d="M23.78,3h-16A2.23,2.23,0,0,0,5.55,5.22V7.44H4.22A2.23,2.23,0,0,0,2,9.66V24.77A2.22,2.22,0,0,0,4.22,27h16a2.21,2.21,0,0,0,2.22-2.22V22.11h1.34A2.24,2.24,0,0,0,26,19.88V5.22A2.21,2.21,0,0,0,23.78,3ZM21.56,24.77a1.35,1.35,0,0,1-1.34,1.34h-16a1.34,1.34,0,0,1-1.33-1.34V9.67A1.34,1.34,0,0,1,4.22,8.33h16a1.35,1.35,0,0,1,1.34,1.34Zm3.55-4.88a1.34,1.34,0,0,1-1.33,1.33H22.45V9.67a2.23,2.23,0,0,0-2.23-2.22H6.45V5.22A1.33,1.33,0,0,1,7.78,3.89h16a1.34,1.34,0,0,1,1.33,1.33Z"/><path id="패스_5" data-name="패스 5" class="cls-2" d="M16.14,15.45a2.59,2.59,0,1,0-2.59-2.59h0A2.59,2.59,0,0,0,16.14,15.45Zm0-4.14a1.56,1.56,0,1,1-1.56,1.55h0A1.55,1.55,0,0,1,16.14,11.31Z"/><path id="패스_6" data-name="패스 6" class="cls-2" d="M18.44,17.39a1.69,1.69,0,0,0-2.15,0L14.44,19,11,15.44a1.49,1.49,0,0,0-2.1-.06h0L4.24,19.87a.54.54,0,0,0,0,.74.47.47,0,0,0,.67.06l0,0,4.68-4.49a.54.54,0,0,1,.75,0l6.68,7a.48.48,0,0,0,.67,0l0,0a.52.52,0,0,0,0-.73l-2.57-2.71,1.78-1.57a.75.75,0,0,1,.9,0L22,21.7a.53.53,0,0,0,.3.12.52.52,0,0,0,.39-.2.53.53,0,0,0-.08-.73Z"/></g></g></g></g></g></svg>