<svg xmlns="http://www.w3.org/2000/svg" viewBox="0 0 29 29"><defs><style>.cls-1{fill:none;}.cls-2{fill:#3d3d3d;}</style></defs><g id="레이어_2" data-name="레이어 2"><g id="레이어_1-2" data-name="레이어 1"><g id="그룹_560" data-name="그룹 560"><g id="그룹_417" data-name="그룹 417"><rect id="사각형_253" data-name="사각형 253" class="cls-1" width="29" height="29"/><g id="그룹_3" data-name="그룹 3"><g id="그룹_1" data-name="그룹 1"><path id="패스_1" data-name="패스 1" class="cls-2" d="M25.75,27H3.48A.49.49,0,0,1,3,26.49.5.5,0,0,1,3.48,26H25.75a.49.49,0,0,1,.47.51A.5.5,0,0,1,25.75,27Z"/></g><g id="그룹_2" data-name="그룹 2"><path id="패스_2" data-name="패스 2" class="cls-2" d="M6.63,26.67a.47.47,0,0,1-.48-.48V6a.53.53,0,0,1,.08-.27L7.94,3.21A.47.47,0,0,1,8.33,3H23a.48.48,0,0,1,.48.48V26.12a.48.48,0,1,1-.95,0h0V4h-14L7.1,6.15v20a.47.47,0,0,1-.47.48Z"/></g><path id="패스_3" data-name="패스 3" class="cls-2" d="M18.62,13.93a.25.25,0,0,0,.09-.34.26.26,0,0,0-.25-.13l-2.24-.19a.37.37,0,0,1-.28-.2L15.06,11a.26.26,0,0,0-.25-.2.25.25,0,0,0-.24.2l-.88,2.07a.39.39,0,0,1-.28.2l-2.25.19a.25.25,0,0,0-.27.23.22.22,0,0,0,.12.24l1.71,1.47a.45.45,0,0,1,.11.34l-.52,2.19a.32.32,0,0,0,0,.27.26.26,0,0,0,.36,0l1.93-1.17a.43.43,0,0,1,.35,0l1.92,1.17a.33.33,0,0,0,.19.06.21.21,0,0,0,.17-.08.3.3,0,0,0,.05-.27l-.52-2.19a.39.39,0,0,1,.11-.34Z"/></g></g></g></g></g></svg>