<svg xmlns="http://www.w3.org/2000/svg" viewBox="0 0 29 29"><defs><style>.cls-1,.cls-2{fill:none;}.cls-2{stroke:#3d3d3d;stroke-linecap:round;stroke-linejoin:round;}</style></defs><g id="레이어_2" data-name="레이어 2"><g id="레이어_1-2" data-name="레이어 1"><g id="그룹_560" data-name="그룹 560"><g id="그룹_559" data-name="그룹 559"><rect id="사각형_257-2" data-name="사각형 257-2" class="cls-1" width="29" height="29"/><path id="패스_1129" data-name="패스 1129" class="cls-2" d="M11.49,25V21.35a1.71,1.71,0,0,1,1.71-1.7h3.46a1.71,1.71,0,0,1,1.72,1.7h0V25a1.46,1.46,0,0,0,1.44,1.46h2.31a4.15,4.15,0,0,0,4.17-4.13h0V11.9a2.92,2.92,0,0,0-1.15-2.28l-7.9-6.3a3.82,3.82,0,0,0-4.74,0L4.65,9.63A2.93,2.93,0,0,0,3.5,11.92V22.37A4.15,4.15,0,0,0,7.67,26.5H10A1.48,1.48,0,0,0,11.46,25h0"/></g></g></g></g></svg>