<svg xmlns="http://www.w3.org/2000/svg" viewBox="0 0 29 29"><defs><style>.cls-1{fill:none;}.cls-2{fill:#3d3d3d;}</style></defs><g id="레이어_2" data-name="레이어 2"><g id="레이어_1-2" data-name="레이어 1"><g id="그룹_560" data-name="그룹 560"><g id="그룹_420" data-name="그룹 420"><rect id="사각형_259" data-name="사각형 259" class="cls-1" width="29" height="29"/><g id="그룹_8" data-name="그룹 8"><g id="그룹_7" data-name="그룹 7"><g id="그룹_5" data-name="그룹 5"><path id="패스_7" data-name="패스 7" class="cls-2" d="M20,27H8.55A3.38,3.38,0,0,1,5,23.83L5.8,10a2,2,0,0,1,2-2H20.73a2,2,0,0,1,2,2l.79,13.75A3.38,3.38,0,0,1,20,27ZM7.83,8.84a1.22,1.22,0,0,0-1.22,1.21l-.8,13.8a2.56,2.56,0,0,0,2.74,2.33H20a2.56,2.56,0,0,0,2.73-2.35l-.79-13.75a1.21,1.21,0,0,0-1.21-1.24H7.83Z"/></g><g id="그룹_6" data-name="그룹 6"><path id="패스_8" data-name="패스 8" class="cls-2" d="M18.75,11.08a.42.42,0,0,1-.41-.41h0V6.6a3.78,3.78,0,0,0-7.56-.12v4.19a.42.42,0,0,1-.43.39.41.41,0,0,1-.39-.39V6.6a4.6,4.6,0,0,1,9.2,0v4.1A.41.41,0,0,1,18.75,11.08Z"/></g></g><path id="패스_9" data-name="패스 9" class="cls-2" d="M17.81,16.35a.21.21,0,0,0,.07-.3.22.22,0,0,0-.2-.1l-1.92-.16a.34.34,0,0,1-.24-.18l-.75-1.77a.21.21,0,0,0-.42,0l-.75,1.77a.34.34,0,0,1-.24.18L11.44,16a.21.21,0,0,0-.23.2.2.2,0,0,0,.1.2l1.46,1.26a.37.37,0,0,1,.09.28l-.44,1.88a.27.27,0,0,0,0,.23.22.22,0,0,0,.31,0l1.65-1a.39.39,0,0,1,.3,0l1.65,1a.3.3,0,0,0,.16.05.18.18,0,0,0,.15-.07.27.27,0,0,0,0-.23l-.45-1.88a.34.34,0,0,1,.1-.28Z"/></g></g></g></g></g></svg>