<svg xmlns="http://www.w3.org/2000/svg" viewBox="0 0 28 27.83"><defs><style>.cls-1{fill:#3d3d3d;}.cls-2{fill:#fff;}</style></defs><g id="레이어_2" data-name="레이어 2"><g id="레이어_1-2" data-name="레이어 1"><path class="cls-1" d="M17.32,7a.54.54,0,0,1-.54-.54V2.68a.54.54,0,0,1,.54-.54.54.54,0,0,1,.54.54V6.43A.54.54,0,0,1,17.32,7Z"/><path class="cls-1" d="M18.5,3.21H16.14a.54.54,0,1,1,0-1.07H18.5a.54.54,0,1,1,0,1.07Z"/><path class="cls-1" d="M10.47,7a.53.53,0,0,1-.48-.3L9.12,4.94V6.43A.54.54,0,0,1,8,6.43V2.68a.53.53,0,0,1,.42-.52.52.52,0,0,1,.6.28l.87,1.72V2.68a.54.54,0,0,1,1.08,0V6.43a.53.53,0,0,1-.42.52Z"/><path class="cls-1" d="M12.36,7a.54.54,0,0,1-.54-.54V2.68a.54.54,0,0,1,.54-.54h1.89a.54.54,0,1,1,0,1.07H12.9V6.43A.54.54,0,0,1,12.36,7Z"/><path class="cls-1" d="M13.51,5.09H12.36a.54.54,0,1,1,0-1.07h1.15a.54.54,0,0,1,0,1.07Z"/><path class="cls-1" d="M23.23,27.83H3.85a.54.54,0,0,1-.54-.54V22.66a.54.54,0,1,1,1.07,0v4.1H22.69V22.07a.54.54,0,0,1,1.08,0v5.22A.54.54,0,0,1,23.23,27.83Z"/><path class="cls-1" d="M23.23,6.73a.54.54,0,0,1-.54-.53V1.07H4.38V5.91a.54.54,0,1,1-1.07,0V.54A.54.54,0,0,1,3.85,0H23.23a.54.54,0,0,1,.54.54V6.2A.54.54,0,0,1,23.23,6.73Z"/><path class="cls-1" d="M22.65,9.1H5.35A.54.54,0,1,1,5.35,8h17.3a.54.54,0,1,1,0,1.07Z"/><path class="cls-1" d="M27.46,11.24h-4a.54.54,0,1,1,0-1.07h4a.54.54,0,1,1,0,1.07Zm-6.19,0H18a.54.54,0,1,1,0-1.07h3.23a.54.54,0,1,1,0,1.07Zm-5.39,0h-.8a.54.54,0,1,1,0-1.07h.8a.54.54,0,1,1,0,1.07Zm-3,0h-4a.54.54,0,0,1,0-1.07h4a.54.54,0,1,1,0,1.07Zm-6.19,0H3.5a.54.54,0,1,1,0-1.07H6.73a.54.54,0,1,1,0,1.07Zm-5.38,0H.54a.54.54,0,1,1,0-1.07h.81a.54.54,0,0,1,0,1.07Z"/><path class="cls-1" d="M27.46,13.38H25.31a.54.54,0,1,1,0-1.07h2.15a.54.54,0,1,1,0,1.07Zm-4.31,0H19.92a.54.54,0,1,1,0-1.07h3.23a.54.54,0,1,1,0,1.07Zm-5.38,0H12.92a.54.54,0,1,1,0-1.07h4.85a.54.54,0,1,1,0,1.07Zm-7,0H7.54a.54.54,0,1,1,0-1.07h3.23a.54.54,0,1,1,0,1.07Zm-5.39,0H.54a.54.54,0,1,1,0-1.07H5.38a.54.54,0,1,1,0,1.07Z"/><path class="cls-1" d="M27.46,15.52H25a.54.54,0,1,1,0-1.07h2.42a.54.54,0,1,1,0,1.07Zm-4.58,0H21a.54.54,0,1,1,0-1.07h1.88a.54.54,0,1,1,0,1.07Zm-4,0h-4a.54.54,0,1,1,0-1.07h4a.54.54,0,0,1,0,1.07Zm-6.2,0H10.77a.54.54,0,1,1,0-1.07h1.88a.54.54,0,1,1,0,1.07Zm-4,0h-4a.54.54,0,1,1,0-1.07h4a.54.54,0,0,1,0,1.07Zm-6.2,0H.54a.54.54,0,1,1,0-1.07H2.42a.54.54,0,1,1,0,1.07Z"/><path class="cls-1" d="M27.46,17.66h-.54a.54.54,0,1,1,0-1.07h.54a.54.54,0,1,1,0,1.07Zm-2.69,0H23.15a.54.54,0,0,1,0-1.07h1.62a.54.54,0,1,1,0,1.07Zm-3.77,0H16.69a.54.54,0,1,1,0-1.07H21a.54.54,0,1,1,0,1.07Zm-6.46,0H10.77a.54.54,0,1,1,0-1.07h3.77a.54.54,0,1,1,0,1.07Zm-5.92,0H7a.54.54,0,1,1,0-1.07H8.62a.54.54,0,0,1,0,1.07Zm-3.77,0H.54a.54.54,0,1,1,0-1.07H4.85a.54.54,0,0,1,0,1.07Z"/><path class="cls-1" d="M27.46,19.8H25.31a.54.54,0,1,1,0-1.07h2.15a.54.54,0,1,1,0,1.07Zm-4.31,0H19.92a.54.54,0,1,1,0-1.07h3.23a.54.54,0,1,1,0,1.07Zm-5.38,0H12.92a.54.54,0,1,1,0-1.07h4.85a.54.54,0,1,1,0,1.07Zm-7,0H7.54a.54.54,0,1,1,0-1.07h3.23a.54.54,0,1,1,0,1.07Zm-5.39,0H.54a.54.54,0,1,1,0-1.07H5.38a.54.54,0,1,1,0,1.07Z"/><path class="cls-1" d="M27.46,21.94H25a.54.54,0,1,1,0-1.07h2.42a.54.54,0,1,1,0,1.07Zm-4.58,0H21a.54.54,0,1,1,0-1.07h1.88a.54.54,0,1,1,0,1.07Zm-4,0h-4a.54.54,0,1,1,0-1.07h4a.54.54,0,0,1,0,1.07Zm-6.2,0H10.77a.54.54,0,1,1,0-1.07h1.88a.54.54,0,1,1,0,1.07Zm-4,0h-4a.54.54,0,1,1,0-1.07h4a.54.54,0,0,1,0,1.07Zm-6.2,0H.54a.54.54,0,1,1,0-1.07H2.42a.54.54,0,1,1,0,1.07Z"/><path class="cls-1" d="M13.38,24.08h-.92a.54.54,0,1,1,0-1.07h.92a.54.54,0,1,1,0,1.07Zm-3.07,0H6A.54.54,0,1,1,6,23h4.31a.54.54,0,1,1,0,1.07Z"/><path class="cls-2" d="M20.18,23.37a2.34,2.34,0,1,1-2.33-2.32A2.32,2.32,0,0,1,20.18,23.37Z"/><path class="cls-1" d="M17.85,26.22a2.85,2.85,0,1,1,2.87-2.85A2.87,2.87,0,0,1,17.85,26.22Zm0-4.63a1.78,1.78,0,1,0,1.79,1.78A1.79,1.79,0,0,0,17.85,21.59Z"/></g></g></svg>